<?xml version="1.0" standalone="no"?>
<!DOCTYPE svg PUBLIC "-//W3C//DTD SVG 20010904//EN"
 "http://www.w3.org/TR/2001/REC-SVG-20010904/DTD/svg10.dtd">
<svg version="1.0" xmlns="http://www.w3.org/2000/svg"
 width="308.000000pt" height="164.000000pt" viewBox="0 0 308.000000 164.000000"
 preserveAspectRatio="xMidYMid meet">

<g transform="translate(0.000000,164.000000) scale(0.100000,-0.100000)"
fill="#FFFFFF" stroke="none">
<path d="M774 1425 c-111 -49 -117 -206 -10 -266 l41 -24 670 -1 c369 -1 706
1 750 4 78 5 81 6 124 48 l43 44 -4 65 c-3 50 -9 70 -27 89 -55 58 -24 56
-823 55 -600 0 -739 -3 -764 -14z m1542 -47 c54 -59 44 -135 -22 -179 -28 -18
-54 -19 -762 -19 -794 0 -769 -2 -806 54 -20 32 -21 88 0 127 31 60 9 59 817
56 l739 -2 34 -37z"/>
<path d="M775 956 c-53 -24 -78 -60 -83 -120 -8 -101 37 -153 146 -166 37 -4
375 -6 752 -5 763 1 720 -3 776 71 49 63 31 156 -38 206 l-33 23 -745 2 c-606
2 -751 0 -775 -11z m1541 -48 c39 -43 45 -91 17 -139 -36 -61 -11 -59 -808
-59 -787 0 -762 -2 -799 54 -20 32 -21 88 0 127 31 60 9 59 817 56 l739 -2 34
-37z"/>
<path d="M775 486 c-56 -25 -79 -60 -83 -131 -4 -62 -3 -64 34 -105 36 -38 44
-42 109 -49 39 -4 378 -7 755 -6 603 1 689 3 715 17 39 21 61 45 80 91 27 66
-8 147 -79 181 -30 14 -110 16 -768 16 -588 -1 -739 -3 -763 -14z m1541 -48
c39 -43 45 -91 17 -139 -36 -61 -11 -59 -808 -59 -797 0 -768 -2 -800 60 -32
61 -9 141 48 165 27 12 157 14 770 12 l739 -2 34 -37z"/>
</g>
</svg>
