<?xml version="1.0" encoding="UTF-8" standalone="no"?>
<!-- Created with Inkscape (http://www.inkscape.org/) -->

<svg
   width="154.19278mm"
   height="54.584686mm"
   viewBox="0 0 154.19278 54.584687"
   version="1.1"
   id="svg5"
   xml:space="preserve"
   inkscape:version="1.2.2 (732a01da63, 2022-12-09)"
   sodipodi:docname="drawing.svg"
   xmlns:inkscape="http://www.inkscape.org/namespaces/inkscape"
   xmlns:sodipodi="http://sodipodi.sourceforge.net/DTD/sodipodi-0.dtd"
   xmlns="http://www.w3.org/2000/svg"
   xmlns:svg="http://www.w3.org/2000/svg"><sodipodi:namedview
     id="namedview7"
     pagecolor="#ffffff"
     bordercolor="#000000"
     borderopacity="0.25"
     inkscape:showpageshadow="2"
     inkscape:pageopacity="0.0"
     inkscape:pagecheckerboard="0"
     inkscape:deskcolor="#d1d1d1"
     inkscape:document-units="mm"
     showgrid="false"
     inkscape:zoom="0.72515432"
     inkscape:cx="264.77123"
     inkscape:cy="266.83975"
     inkscape:window-width="960"
     inkscape:window-height="1001"
     inkscape:window-x="-9"
     inkscape:window-y="-9"
     inkscape:window-maximized="0"
     inkscape:current-layer="layer1" /><defs
     id="defs2" /><g
     inkscape:label="Layer 1"
     inkscape:groupmode="layer"
     id="layer1"
     transform="translate(7.2972973,5.472973)"><g
       id="g591"
       transform="matrix(0.90571346,0,0,1.0397927,26.467343,-127.79683)"><g
         transform="matrix(0.03161771,0,0,-0.03161771,-64.355228,256.25509)"
         fill="#ffffff"
         stroke="none"
         id="g49"><path
           d="m 1000,3535 v -725 h 420 420 v 725 725 h -420 -420 z m 273,594 c 7,-6 64,-46 127,-89 63,-43 134,-92 158,-110 l 42,-31 v -139 c 0,-106 -3,-140 -12,-139 -7,0 -87,51 -178,113 l -165,112 -3,134 c -3,158 1,176 31,149 z m 6,-342 c 9,-8 81,-58 161,-112 80,-54 148,-103 152,-109 9,-14 10,-286 1,-286 -3,0 -84,52 -180,115 l -173,116 v 138 c 0,154 4,168 39,138 z m 143,-449 c 89,-62 166,-117 171,-122 9,-14 7,-275 -2,-281 -5,-2 -85,48 -179,111 l -172,116 v 137 c 0,119 3,151 16,151 1,0 76,-50 166,-112 z"
           id="path35" /><path
           d="m 3405,4058 c -3,-7 -4,-209 -3,-448 l 3,-435 88,-3 87,-3 v 83 82 l 42,43 c 23,24 47,43 53,42 5,0 55,-56 109,-125 l 100,-124 h 108 c 91,0 108,2 101,14 -4,8 -62,83 -128,166 -66,83 -127,162 -135,176 -14,24 -12,27 113,152 70,70 127,131 127,135 0,4 -47,7 -104,7 -118,0 -89,16 -263,-151 -56,-55 -107,-99 -112,-99 -8,0 -11,80 -11,250 v 250 h -85 c -59,0 -87,-4 -90,-12 z"
           id="path37" /><path
           d="m 5317,4063 c -4,-3 -7,-73 -7,-155 0,-135 -6,-169 -25,-138 -13,20 -85,50 -137,56 -154,18 -300,-76 -342,-220 -38,-130 -2,-283 85,-363 96,-88 285,-107 376,-37 42,32 53,30 53,-6 v -30 h 85 85 v 450 450 h -83 c -46,0 -87,-3 -90,-7 z m -75,-414 c 64,-46 87,-162 48,-246 -49,-108 -210,-121 -281,-22 -21,29 -24,45 -24,116 0,76 2,84 31,119 16,21 46,43 65,51 46,17 123,9 161,-18 z"
           id="path39" /><path
           d="m 2215,4020 c -132,-27 -220,-111 -232,-222 -15,-147 59,-222 269,-273 179,-44 218,-66 218,-121 0,-54 -38,-81 -127,-90 -87,-9 -172,11 -309,72 -11,5 -64,-104 -64,-131 0,-19 132,-71 214,-86 93,-16 236,-7 306,20 106,40 170,125 170,225 0,146 -81,207 -358,267 -97,21 -150,77 -124,133 34,75 211,85 349,19 19,-9 37,-12 42,-7 11,13 51,114 51,129 0,15 -94,51 -169,65 -62,12 -178,11 -236,0 z"
           id="path41" /><path
           d="m 4289,3820 c -52,-8 -169,-53 -169,-64 0,-11 53,-117 60,-121 5,-3 23,3 42,14 18,10 60,24 93,30 50,9 70,8 113,-4 56,-17 77,-40 88,-93 l 7,-32 h -114 c -63,0 -133,-5 -157,-10 -66,-16 -121,-55 -143,-103 -25,-57 -24,-104 6,-164 20,-39 36,-56 78,-79 45,-25 63,-28 137,-28 89,0 147,19 181,60 13,16 14,14 19,-17 l 5,-34 83,-3 82,-3 v 228 c -1,164 -5,239 -14,266 -37,101 -119,153 -256,161 -47,3 -110,1 -141,-4 z m 231,-413 c 0,-74 -52,-119 -141,-120 -80,-1 -127,50 -100,109 16,37 65,53 159,54 h 82 z"
           id="path43" /><path
           d="m 5757,3817 c -107,-25 -187,-108 -187,-197 0,-20 10,-56 23,-80 28,-56 82,-85 199,-106 134,-25 158,-33 170,-59 34,-75 -138,-100 -283,-41 -35,14 -63,24 -64,23 0,-1 -14,-30 -30,-64 -16,-35 -26,-65 -23,-69 16,-16 153,-53 218,-59 87,-8 196,7 249,34 100,52 139,158 91,250 -28,57 -74,80 -211,107 -66,13 -129,29 -140,34 -25,14 -24,52 2,76 32,29 147,31 223,5 32,-11 61,-19 65,-17 15,10 53,105 48,120 -15,39 -241,67 -350,43 z"
           id="path45" /><path
           d="m 2644,3797 c 3,-13 64,-160 136,-327 79,-181 128,-309 125,-320 -3,-10 -17,-30 -32,-44 -20,-21 -35,-26 -72,-26 -25,1 -57,7 -71,15 -14,8 -28,14 -32,15 -7,0 -68,-112 -68,-125 0,-2 19,-14 43,-27 30,-15 65,-23 122,-26 73,-3 85,-1 135,25 32,16 68,45 85,69 17,22 66,123 110,225 43,101 114,267 157,368 46,107 75,188 70,193 -5,5 -44,8 -86,6 l -78,-3 -74,-180 c -100,-243 -103,-250 -114,-239 -8,8 -84,185 -158,369 -8,22 -20,43 -26,47 -6,4 -49,8 -95,8 -82,0 -83,0 -77,-23 z"
           id="path47" /></g></g></g></svg>
